<?xml version="1.0" encoding="UTF-8" standalone="no"?>
<!DOCTYPE svg PUBLIC "-//W3C//DTD SVG 1.1//EN" "http://www.w3.org/Graphics/SVG/1.1/DTD/svg11.dtd">
<svg version="1.1" xmlns="http://www.w3.org/2000/svg" xmlns:xlink="http://www.w3.org/1999/xlink" preserveAspectRatio="xMidYMid meet" viewBox="0 0 16 16" width="16" height="16"><defs><path d="M0 0L4 0L4 4.06L0 4.06L0 0Z" id="ag85EsvEo"></path><path d="M4 0L8 0L8 4.06L4 4.06L4 0Z" id="biq8y6XMW"></path><path d="M8 0L12 0L12 4.06L8 4.06L8 0Z" id="b5Bj166m8l"></path><path d="M12 0L16 0L16 4.06L12 4.06L12 0Z" id="b1SU8u193O"></path><path d="M0 4.06L4 4.06L4 8.12L0 8.12L0 4.06Z" id="dTAiVrul"></path><path d="M4 4.06L8 4.06L8 8.12L4 8.12L4 4.06Z" id="b1Kh1TwUMo"></path><path d="M8 4.06L12 4.06L12 8.12L8 8.12L8 4.06Z" id="h1vmJQbMS"></path><path d="M12 4.06L16 4.06L16 8.12L12 8.12L12 4.06Z" id="k3XGzzbcV6"></path><path d="M0 8.12L4 8.12L4 12.19L0 12.19L0 8.12Z" id="bfLp0Iz7y"></path><path d="M4 8.12L8 8.12L8 12.19L4 12.19L4 8.12Z" id="f94JGod71V"></path><path d="M8 8.12L12 8.12L12 12.19L8 12.19L8 8.12Z" id="aVt2PIWs"></path><path d="M12 8.12L16 8.12L16 12.19L12 12.19L12 8.12Z" id="c2ovPACMc"></path><path d="M0 11.94L4 11.94L4 16L0 16L0 11.94Z" id="eBvK625KC"></path><path d="M4 11.94L8 11.94L8 16L4 16L4 11.94Z" id="d1TQCByzM7"></path><path d="M8 11.94L12 11.94L12 16L8 16L8 11.94Z" id="azArvH2HY"></path><path d="M12 11.94L16 11.94L16 16L12 16L12 11.94Z" id="bfk4STtZX"></path></defs><g><g><g><use xlink:href="#ag85EsvEo" opacity="1" fill="#ffffff" fill-opacity="1"></use><g><use xlink:href="#ag85EsvEo" opacity="1" fill-opacity="0" stroke="#000000" stroke-width="0.1" stroke-opacity="1"></use></g></g><g><use xlink:href="#biq8y6XMW" opacity="1" fill="#ffffff" fill-opacity="1"></use><g><use xlink:href="#biq8y6XMW" opacity="1" fill-opacity="0" stroke="#000000" stroke-width="0.1" stroke-opacity="1"></use></g></g><g><use xlink:href="#b5Bj166m8l" opacity="1" fill="#ffffff" fill-opacity="1"></use><g><use xlink:href="#b5Bj166m8l" opacity="1" fill-opacity="0" stroke="#000000" stroke-width="0.1" stroke-opacity="1"></use></g></g><g><use xlink:href="#b1SU8u193O" opacity="1" fill="#ffffff" fill-opacity="1"></use><g><use xlink:href="#b1SU8u193O" opacity="1" fill-opacity="0" stroke="#000000" stroke-width="0.1" stroke-opacity="1"></use></g></g><g><use xlink:href="#dTAiVrul" opacity="1" fill="#ffffff" fill-opacity="1"></use><g><use xlink:href="#dTAiVrul" opacity="1" fill-opacity="0" stroke="#000000" stroke-width="0.1" stroke-opacity="1"></use></g></g><g><use xlink:href="#b1Kh1TwUMo" opacity="1" fill="#ffffff" fill-opacity="1"></use><g><use xlink:href="#b1Kh1TwUMo" opacity="1" fill-opacity="0" stroke="#000000" stroke-width="0.1" stroke-opacity="1"></use></g></g><g><use xlink:href="#h1vmJQbMS" opacity="1" fill="#ffffff" fill-opacity="1"></use><g><use xlink:href="#h1vmJQbMS" opacity="1" fill-opacity="0" stroke="#000000" stroke-width="0.1" stroke-opacity="1"></use></g></g><g><use xlink:href="#k3XGzzbcV6" opacity="1" fill="#ffffff" fill-opacity="1"></use><g><use xlink:href="#k3XGzzbcV6" opacity="1" fill-opacity="0" stroke="#000000" stroke-width="0.1" stroke-opacity="1"></use></g></g><g><use xlink:href="#bfLp0Iz7y" opacity="1" fill="#ffffff" fill-opacity="1"></use><g><use xlink:href="#bfLp0Iz7y" opacity="1" fill-opacity="0" stroke="#000000" stroke-width="0.1" stroke-opacity="1"></use></g></g><g><use xlink:href="#f94JGod71V" opacity="1" fill="#ffffff" fill-opacity="1"></use><g><use xlink:href="#f94JGod71V" opacity="1" fill-opacity="0" stroke="#000000" stroke-width="0.1" stroke-opacity="1"></use></g></g><g><use xlink:href="#aVt2PIWs" opacity="1" fill="#ffffff" fill-opacity="1"></use><g><use xlink:href="#aVt2PIWs" opacity="1" fill-opacity="0" stroke="#000000" stroke-width="0.1" stroke-opacity="1"></use></g></g><g><use xlink:href="#c2ovPACMc" opacity="1" fill="#ffffff" fill-opacity="1"></use><g><use xlink:href="#c2ovPACMc" opacity="1" fill-opacity="0" stroke="#000000" stroke-width="0.1" stroke-opacity="1"></use></g></g><g><use xlink:href="#eBvK625KC" opacity="1" fill="#ffffff" fill-opacity="1"></use><g><use xlink:href="#eBvK625KC" opacity="1" fill-opacity="0" stroke="#000000" stroke-width="0.1" stroke-opacity="1"></use></g></g><g><use xlink:href="#d1TQCByzM7" opacity="1" fill="#ffffff" fill-opacity="1"></use><g><use xlink:href="#d1TQCByzM7" opacity="1" fill-opacity="0" stroke="#000000" stroke-width="0.1" stroke-opacity="1"></use></g></g><g><use xlink:href="#azArvH2HY" opacity="1" fill="#ffffff" fill-opacity="1"></use><g><use xlink:href="#azArvH2HY" opacity="1" fill-opacity="0" stroke="#000000" stroke-width="0.1" stroke-opacity="1"></use></g></g><g><use xlink:href="#bfk4STtZX" opacity="1" fill="#ffffff" fill-opacity="1"></use><g><use xlink:href="#bfk4STtZX" opacity="1" fill-opacity="0" stroke="#000000" stroke-width="0.1" stroke-opacity="1"></use></g></g></g></g></svg>