<?xml version="1.0" encoding="UTF-8" standalone="no"?>
<!DOCTYPE svg PUBLIC "-//W3C//DTD SVG 1.1//EN" "http://www.w3.org/Graphics/SVG/1.1/DTD/svg11.dtd">
<svg version="1.1" xmlns="http://www.w3.org/2000/svg" xmlns:xlink="http://www.w3.org/1999/xlink" preserveAspectRatio="xMidYMid meet" viewBox="0 0 16 16" width="16" height="16"><defs><path d="M5.12 7.24C4.51 6.75 3.64 6.57 2.83 6.57C2.02 6.57 1.15 6.75 0.54 7.24C0.54 7.9 0.54 13.15 0.54 13.81C0.54 13.92 0.65 14.03 0.75 14.03C0.79 14.03 0.81 14.01 0.86 14.01C1.42 13.72 2.23 13.52 2.83 13.52C3.64 13.52 4.51 13.7 5.12 14.19C5.68 13.81 6.69 13.52 7.4 13.52C8.09 13.52 8.79 13.65 9.37 13.99C9.42 14.01 9.44 14.01 9.48 14.01C9.58 14.01 9.69 13.9 9.69 13.79C9.69 13.13 9.69 7.9 9.69 7.24C9.44 7.04 9.17 6.91 8.85 6.8C8.39 6.64 7.89 6.57 7.4 6.57C6.59 6.57 5.72 6.75 5.12 7.24ZM5.12 13.29C5.12 12.78 5.12 8.66 5.12 8.14C5.68 7.76 6.69 7.47 7.4 7.47C7.9 7.47 8.4 7.54 8.85 7.69C8.85 8.04 8.85 9.75 8.85 12.85C8.22 12.7 7.73 12.62 7.4 12.62C6.69 12.62 5.68 12.91 5.12 13.29Z" id="a4J8fdhyVz"></path><path d="M5.12 7.24C4.51 6.75 3.64 6.57 2.83 6.57C2.02 6.57 1.15 6.75 0.54 7.24C0.54 7.9 0.54 13.15 0.54 13.81C0.54 13.92 0.65 14.03 0.75 14.03C0.79 14.03 0.81 14.01 0.86 14.01C1.42 13.72 2.23 13.52 2.83 13.52C3.64 13.52 4.51 13.7 5.12 14.19C5.68 13.81 6.69 13.52 7.4 13.52C8.09 13.52 8.79 13.65 9.37 13.99C9.42 14.01 9.44 14.01 9.48 14.01C9.58 14.01 9.69 13.9 9.69 13.79C9.69 13.13 9.69 7.9 9.69 7.24C9.44 7.04 9.17 6.91 8.85 6.8C8.39 6.64 7.89 6.57 7.4 6.57C6.59 6.57 5.72 6.75 5.12 7.24ZM5.12 13.29C5.12 12.78 5.12 8.66 5.12 8.14C5.68 7.76 6.69 7.47 7.4 7.47C7.9 7.47 8.4 7.54 8.85 7.69C8.85 8.04 8.85 9.75 8.85 12.85C8.22 12.7 7.73 12.62 7.4 12.62C6.69 12.62 5.68 12.91 5.12 13.29Z" id="cFbv1QCEO"></path><path d="M11.34 10.38L14.98 6.87L13.74 5.68L10.1 9.19L10.1 10.38L11.34 10.38ZM15.16 4.76C15.04 4.64 14.83 4.64 14.7 4.76C14.66 4.8 14.46 4.99 14.1 5.34C14.18 5.42 14.59 5.82 15.33 6.53C15.69 6.18 15.9 5.99 15.94 5.95C16.02 5.73 16.02 5.59 15.94 5.5C15.86 5.43 15.24 4.83 15.16 4.76Z" id="a1WUed3KDG"></path><path d="M11.34 10.38L14.98 6.87L13.74 5.68L10.1 9.19L10.1 10.38L11.34 10.38ZM15.16 4.76C15.04 4.64 14.83 4.64 14.7 4.76C14.66 4.8 14.46 4.99 14.1 5.34C14.18 5.42 14.59 5.82 15.33 6.53C15.69 6.18 15.9 5.99 15.94 5.95C16.02 5.73 16.02 5.59 15.94 5.5C15.86 5.43 15.24 4.83 15.16 4.76Z" id="f2STifenDr"></path><path d="M4.05 1.81L4.05 7.52L-1.85 7.52L-1.85 1.81L4.05 1.81Z" id="ff5D64H00"></path><path d="M4.05 1.81L4.05 7.52L-1.85 7.52L-1.85 1.81L4.05 1.81Z" id="bsVbq1Jn"></path><path d="M11.1 6.57L10.58 6.57L10.58 5.09L9.02 5.09L9.02 4.6L10.58 4.6L10.58 3.11L11.1 3.11L11.1 4.6L12.66 4.6L12.66 5.09L11.1 5.09L11.1 6.57Z" id="c2YwcxJFTr"></path><path d="M11.1 6.57L10.58 6.57L10.58 5.09L9.02 5.09L9.02 4.6L10.58 4.6L10.58 3.11L11.1 3.11L11.1 4.6L12.66 4.6L12.66 5.09L11.1 5.09L11.1 6.57Z" id="a3KJF9WKw"></path><path d="M5.12 7.24C4.51 6.75 3.64 6.57 2.83 6.57C2.02 6.57 1.15 6.75 0.54 7.24C0.54 7.9 0.54 13.15 0.54 13.81C0.54 13.92 0.65 14.03 0.75 14.03C0.79 14.03 0.81 14.01 0.86 14.01C1.42 13.72 2.23 13.52 2.83 13.52C3.64 13.52 4.51 13.7 5.12 14.19C5.68 13.81 6.69 13.52 7.4 13.52C8.09 13.52 8.79 13.65 9.37 13.99C9.42 14.01 9.44 14.01 9.48 14.01C9.58 14.01 9.69 13.9 9.69 13.79C9.69 13.13 9.69 7.9 9.69 7.24C9.44 7.04 9.17 6.91 8.85 6.8C8.39 6.64 7.89 6.57 7.4 6.57C6.59 6.57 5.72 6.75 5.12 7.24ZM5.12 13.29C5.12 12.78 5.12 8.66 5.12 8.14C5.68 7.76 6.69 7.47 7.4 7.47C7.9 7.47 8.4 7.54 8.85 7.69C8.85 8.04 8.85 9.75 8.85 12.85C8.22 12.7 7.73 12.62 7.4 12.62C6.69 12.62 5.68 12.91 5.12 13.29Z" id="h65jExCm5L"></path><path d="M2.05 4.11C1.45 3.62 0.57 3.44 -0.24 3.44C-1.05 3.44 -1.92 3.62 -2.52 4.11C-2.52 4.77 -2.52 10.02 -2.52 10.67C-2.52 10.79 -2.42 10.9 -2.31 10.9C-2.27 10.9 -2.25 10.88 -2.21 10.88C-1.65 10.59 -0.84 10.38 -0.24 10.38C0.57 10.38 1.45 10.56 2.05 11.06C2.61 10.67 3.63 10.38 4.33 10.38C5.02 10.38 5.72 10.52 6.31 10.85C6.35 10.88 6.37 10.88 6.41 10.88C6.51 10.88 6.62 10.76 6.62 10.65C6.62 10 6.62 4.76 6.62 4.11C6.37 3.91 6.1 3.77 5.79 3.66C5.33 3.51 4.82 3.44 4.33 3.44C3.52 3.44 2.65 3.62 2.05 4.11ZM2.05 10.16C2.05 9.64 2.05 5.52 2.05 5.01C2.61 4.63 3.63 4.33 4.33 4.33C4.83 4.33 5.33 4.4 5.79 4.56C5.79 4.9 5.79 6.62 5.79 9.71C5.15 9.56 4.67 9.49 4.33 9.49C3.63 9.49 2.61 9.78 2.05 10.16Z" id="cvzYG3GZe"></path><path d="M11.34 10.38L14.98 6.87L13.74 5.68L10.1 9.19L10.1 10.38L11.34 10.38ZM15.16 4.76C15.04 4.64 14.83 4.64 14.7 4.76C14.66 4.8 14.46 4.99 14.1 5.34C14.18 5.42 14.59 5.82 15.33 6.53C15.69 6.18 15.9 5.99 15.94 5.95C16.02 5.73 16.02 5.59 15.94 5.5C15.86 5.43 15.24 4.83 15.16 4.76Z" id="b2bTWMS1w"></path><path d="M11.34 10.38L14.98 6.87L13.74 5.68L10.1 9.19L10.1 10.38L11.34 10.38ZM15.16 4.76C15.04 4.64 14.83 4.64 14.7 4.76C14.66 4.8 14.46 4.99 14.1 5.34C14.18 5.42 14.59 5.82 15.33 6.53C15.69 6.18 15.9 5.99 15.94 5.95C16.02 5.73 16.02 5.59 15.94 5.5C15.86 5.43 15.24 4.83 15.16 4.76Z" id="b37IRRgEuk"></path><path d="M4.05 1.81L4.05 7.52L-1.85 7.52L-1.85 1.81L4.05 1.81Z" id="bnmBZSNch"></path><path d="M283.36 199.23L283.36 216.11L264.84 216.11L264.84 199.23L283.36 199.23Z" id="a1gO4T1JgV"></path><path d="M11.1 6.57L10.58 6.57L10.58 5.09L9.02 5.09L9.02 4.6L10.58 4.6L10.58 3.11L11.1 3.11L11.1 4.6L12.66 4.6L12.66 5.09L11.1 5.09L11.1 6.57Z" id="a88sklUtK"></path><path d="M11.1 6.57L10.58 6.57L10.58 5.09L9.02 5.09L9.02 4.6L10.58 4.6L10.58 3.11L11.1 3.11L11.1 4.6L12.66 4.6L12.66 5.09L11.1 5.09L11.1 6.57Z" id="b1NfQ4WHv"></path></defs><g><g><g><use xlink:href="#a4J8fdhyVz" opacity="1" fill="#000000" fill-opacity="1"></use><g><use xlink:href="#a4J8fdhyVz" opacity="1" fill-opacity="0" stroke="#000000" stroke-width="1" stroke-opacity="0"></use></g></g><g><use xlink:href="#cFbv1QCEO" opacity="1" fill="#000000" fill-opacity="0"></use><g><use xlink:href="#cFbv1QCEO" opacity="1" fill-opacity="0" stroke="#000000" stroke-width="1" stroke-opacity="0"></use></g></g><g><use xlink:href="#a1WUed3KDG" opacity="1" fill="#000000" fill-opacity="1"></use><g><use xlink:href="#a1WUed3KDG" opacity="1" fill-opacity="0" stroke="#000000" stroke-width="1" stroke-opacity="0"></use></g></g><g><use xlink:href="#f2STifenDr" opacity="1" fill="#000000" fill-opacity="0"></use><g><use xlink:href="#f2STifenDr" opacity="1" fill-opacity="0" stroke="#000000" stroke-width="1" stroke-opacity="0"></use></g></g><g><use xlink:href="#ff5D64H00" opacity="1" fill="#000000" fill-opacity="0"></use><g><use xlink:href="#ff5D64H00" opacity="1" fill-opacity="0" stroke="#000000" stroke-width="1" stroke-opacity="0"></use></g></g><g><use xlink:href="#bsVbq1Jn" opacity="1" fill="#000000" fill-opacity="0"></use><g><use xlink:href="#bsVbq1Jn" opacity="1" fill-opacity="0" stroke="#000000" stroke-width="1" stroke-opacity="0"></use></g></g><g><use xlink:href="#c2YwcxJFTr" opacity="1" fill="#000000" fill-opacity="1"></use><g><use xlink:href="#c2YwcxJFTr" opacity="1" fill-opacity="0" stroke="#000000" stroke-width="1" stroke-opacity="0"></use></g></g><g><use xlink:href="#a3KJF9WKw" opacity="1" fill="#000000" fill-opacity="0"></use><g><use xlink:href="#a3KJF9WKw" opacity="1" fill-opacity="0" stroke="#000000" stroke-width="1" stroke-opacity="0"></use></g></g><g><use xlink:href="#h65jExCm5L" opacity="1" fill="#000000" fill-opacity="1"></use><g><use xlink:href="#h65jExCm5L" opacity="1" fill-opacity="0" stroke="#000000" stroke-width="1" stroke-opacity="0"></use></g></g><g><use xlink:href="#cvzYG3GZe" opacity="1" fill="#000000" fill-opacity="0"></use><g><use xlink:href="#cvzYG3GZe" opacity="1" fill-opacity="0" stroke="#000000" stroke-width="1" stroke-opacity="0"></use></g></g><g><use xlink:href="#b2bTWMS1w" opacity="1" fill="#000000" fill-opacity="1"></use><g><use xlink:href="#b2bTWMS1w" opacity="1" fill-opacity="0" stroke="#000000" stroke-width="1" stroke-opacity="0"></use></g></g><g><use xlink:href="#b37IRRgEuk" opacity="1" fill="#000000" fill-opacity="0"></use><g><use xlink:href="#b37IRRgEuk" opacity="1" fill-opacity="0" stroke="#000000" stroke-width="1" stroke-opacity="0"></use></g></g><g><use xlink:href="#bnmBZSNch" opacity="1" fill="#000000" fill-opacity="0"></use><g><use xlink:href="#bnmBZSNch" opacity="1" fill-opacity="0" stroke="#000000" stroke-width="1" stroke-opacity="0"></use></g></g><g><use xlink:href="#a1gO4T1JgV" opacity="1" fill="#000000" fill-opacity="0"></use><g><use xlink:href="#a1gO4T1JgV" opacity="1" fill-opacity="0" stroke="#000000" stroke-width="1" stroke-opacity="0"></use></g></g><g><use xlink:href="#a88sklUtK" opacity="1" fill="#000000" fill-opacity="1"></use><g><use xlink:href="#a88sklUtK" opacity="1" fill-opacity="0" stroke="#000000" stroke-width="1" stroke-opacity="0"></use></g></g><g><use xlink:href="#b1NfQ4WHv" opacity="1" fill="#000000" fill-opacity="0"></use><g><use xlink:href="#b1NfQ4WHv" opacity="1" fill-opacity="0" stroke="#000000" stroke-width="1" stroke-opacity="0"></use></g></g></g></g></svg>