<?xml version="1.0" encoding="UTF-8" standalone="no"?>
<!DOCTYPE svg PUBLIC "-//W3C//DTD SVG 1.1//EN" "http://www.w3.org/Graphics/SVG/1.1/DTD/svg11.dtd">
<svg version="1.1" xmlns="http://www.w3.org/2000/svg" xmlns:xlink="http://www.w3.org/1999/xlink" preserveAspectRatio="xMidYMid meet" viewBox="0 0 16 16" width="16" height="16"><defs><path d="M3.75 3.94L11 3.94L11 11.34L3.75 11.34L3.75 3.94Z" id="b44TvSqCev"></path><path d="M13.66 2C13.93 2 14.16 2.23 14.16 2.5C14.16 4.79 14.16 11.15 14.16 13.44C14.16 13.72 13.93 13.94 13.66 13.94C11.33 13.94 4.83 13.94 2.5 13.94C2.23 13.94 2 13.72 2 13.44C2 11.15 2 4.79 2 2.5C2 2.23 2.23 2 2.5 2C4.83 2 11.33 2 13.66 2Z" id="b5Nx5W4I4"></path><path d="M6.72 8.24C6.72 8.45 6.89 8.63 7.09 8.63C7.3 8.63 7.47 8.45 7.47 8.24C7.47 8.03 7.3 7.85 7.09 7.85C6.89 7.85 6.72 8.03 6.72 8.24ZM8.53 8.24C8.53 8.45 8.7 8.63 8.91 8.63C9.11 8.63 9.28 8.45 9.28 8.24C9.28 8.03 9.11 7.85 8.91 7.85C8.7 7.85 8.53 8.03 8.53 8.24ZM4.98 7.93C4.98 9.64 6.33 11.02 8 11.02C9.67 11.02 11.02 9.64 11.02 7.93C11.02 6.23 9.67 4.85 8 4.85C6.33 4.85 4.98 6.23 4.98 7.93ZM5.58 7.93C5.58 7.84 5.59 7.75 5.6 7.67C6.31 7.34 6.88 6.75 7.17 6.01C7.72 6.8 8.62 7.31 9.64 7.31C9.87 7.31 10.1 7.29 10.32 7.23C10.38 7.45 10.42 7.69 10.42 7.93C10.42 9.29 9.33 10.4 8 10.4C6.67 10.4 5.58 9.29 5.58 7.93Z" id="a1Ic2YdVVq"></path><path d="" id="aaLO96hpZV"></path><path d="M11.86 10.11L11.83 10.11L11.8 10.11L11.77 10.12L11.74 10.13L11.71 10.13L11.69 10.14L11.66 10.15L11.63 10.16L11.61 10.17L11.58 10.19L11.55 10.2L11.53 10.22L11.51 10.23L11.48 10.25L11.46 10.27L11.44 10.28L11.42 10.3L11.4 10.32L11.38 10.34L11.36 10.36L11.34 10.39L11.32 10.41L11.31 10.43L11.29 10.46L11.28 10.48L11.26 10.51L11.25 10.53L11.24 10.56L11.23 10.58L11.22 10.61L11.21 10.64L11.2 10.67L11.2 10.7L11.19 10.73L11.19 10.76L11.18 10.79L11.18 10.82L11.18 10.85L11.18 10.88L11.18 10.91L11.19 10.94L11.19 10.97L11.2 11L11.2 11.02L11.21 11.05L11.22 11.08L11.23 11.11L11.24 11.14L11.25 11.16L11.26 11.19L11.28 11.21L11.29 11.24L11.31 11.26L10.84 11.73L11.04 11.93L11.51 11.46L11.53 11.48L11.55 11.49L11.58 11.51L11.61 11.52L11.63 11.53L11.66 11.54L11.69 11.55L11.71 11.56L11.74 11.57L11.77 11.57L11.8 11.58L11.83 11.58L11.86 11.59L11.89 11.59L11.92 11.59L11.95 11.59L11.98 11.59L12.01 11.58L12.04 11.58L12.07 11.57L12.1 11.57L12.12 11.56L12.15 11.55L12.18 11.54L12.2 11.53L12.23 11.52L12.26 11.51L12.28 11.49L12.31 11.48L12.33 11.46L12.35 11.45L12.38 11.43L12.4 11.41L12.42 11.39L12.44 11.37L12.46 11.35L12.48 11.33L12.5 11.31L12.51 11.28L12.53 11.26L12.54 11.24L12.56 11.21L12.57 11.19L12.58 11.16L12.6 11.14L12.61 11.11L12.62 11.08L12.63 11.05L12.63 11.02L12.64 11L12.64 10.97L12.65 10.94L12.65 10.91L12.65 10.88L12.65 10.85L12.65 10.82L12.65 10.79L12.65 10.76L12.64 10.73L12.64 10.7L12.63 10.67L12.63 10.64L12.62 10.61L12.61 10.58L12.6 10.56L12.58 10.53L12.57 10.51L12.56 10.48L12.54 10.46L12.53 10.43L12.51 10.41L12.5 10.39L12.48 10.36L12.46 10.34L12.44 10.32L12.42 10.3L12.4 10.28L12.38 10.27L12.35 10.25L12.33 10.23L12.31 10.22L12.28 10.2L12.26 10.19L12.23 10.17L12.2 10.16L12.18 10.15L12.15 10.14L12.12 10.13L12.1 10.13L12.07 10.12L12.04 10.11L12.01 10.11L11.98 10.11L11.95 10.11L11.92 10.1L11.89 10.11L11.86 10.11ZM11.96 10.39L11.97 10.39L11.99 10.39L12.01 10.4L12.03 10.4L12.04 10.41L12.06 10.41L12.08 10.42L12.1 10.42L12.11 10.43L12.13 10.44L12.14 10.45L12.16 10.46L12.17 10.47L12.19 10.48L12.2 10.49L12.21 10.5L12.23 10.51L12.24 10.52L12.25 10.54L12.26 10.55L12.27 10.56L12.28 10.58L12.29 10.59L12.3 10.61L12.31 10.62L12.32 10.64L12.33 10.65L12.34 10.67L12.34 10.68L12.35 10.7L12.35 10.72L12.36 10.74L12.36 10.75L12.37 10.77L12.37 10.79L12.37 10.81L12.37 10.83L12.37 10.85L12.37 10.87L12.37 10.88L12.37 10.9L12.37 10.92L12.36 10.94L12.36 10.96L12.35 10.97L12.35 10.99L12.34 11.01L12.34 11.02L12.33 11.04L12.32 11.06L12.31 11.07L12.3 11.09L12.29 11.1L12.28 11.12L12.27 11.13L12.26 11.14L12.25 11.16L12.24 11.17L12.23 11.18L12.21 11.19L12.2 11.21L12.19 11.22L12.17 11.23L12.16 11.24L12.14 11.24L12.13 11.25L12.11 11.26L12.1 11.27L12.08 11.27L12.06 11.28L12.04 11.29L12.03 11.29L12.01 11.29L11.99 11.3L11.97 11.3L11.96 11.3L11.94 11.3L11.92 11.3L11.9 11.3L11.88 11.3L11.86 11.3L11.84 11.3L11.83 11.29L11.81 11.29L11.79 11.29L11.77 11.28L11.76 11.27L11.74 11.27L11.73 11.26L11.71 11.25L11.69 11.24L11.68 11.24L11.66 11.23L11.65 11.22L11.64 11.21L11.62 11.19L11.61 11.18L11.6 11.17L11.58 11.16L11.57 11.14L11.56 11.13L11.55 11.12L11.54 11.1L11.53 11.09L11.52 11.07L11.51 11.06L11.51 11.04L11.5 11.02L11.49 11.01L11.49 10.99L11.48 10.97L11.48 10.96L11.47 10.94L11.47 10.92L11.47 10.9L11.47 10.88L11.46 10.87L11.46 10.85L11.46 10.83L11.47 10.81L11.47 10.79L11.47 10.77L11.47 10.75L11.48 10.74L11.48 10.72L11.49 10.7L11.49 10.68L11.5 10.67L11.51 10.65L11.51 10.64L11.52 10.62L11.53 10.61L11.54 10.59L11.55 10.58L11.56 10.56L11.57 10.55L11.58 10.54L11.6 10.52L11.61 10.51L11.62 10.5L11.64 10.49L11.65 10.48L11.66 10.47L11.68 10.46L11.69 10.45L11.71 10.44L11.73 10.43L11.74 10.42L11.76 10.42L11.77 10.41L11.79 10.41L11.81 10.4L11.83 10.4L11.84 10.39L11.86 10.39L11.88 10.39L11.9 10.39L11.92 10.39L11.94 10.39L11.96 10.39Z" id="hT6ceI2jA"></path></defs><g><g><g><use xlink:href="#b44TvSqCev" opacity="1" fill="#000000" fill-opacity="0"></use><g><use xlink:href="#b44TvSqCev" opacity="1" fill-opacity="0" stroke="#000000" stroke-width="1" stroke-opacity="0"></use></g></g><g><use xlink:href="#b5Nx5W4I4" opacity="1" fill="#ffffff" fill-opacity="1"></use><g><use xlink:href="#b5Nx5W4I4" opacity="1" fill-opacity="0" stroke="#000000" stroke-width="0.1" stroke-opacity="1"></use></g></g><g><use xlink:href="#a1Ic2YdVVq" opacity="1" fill="#000000" fill-opacity="1"></use><g><use xlink:href="#a1Ic2YdVVq" opacity="1" fill-opacity="0" stroke="#000000" stroke-width="1" stroke-opacity="0"></use></g></g><g><g><use xlink:href="#aaLO96hpZV" opacity="1" fill-opacity="0" stroke="#c577c6" stroke-width="1" stroke-opacity="1"></use></g></g><g><use xlink:href="#hT6ceI2jA" opacity="1" fill="#000000" fill-opacity="1"></use></g></g></g></svg>